<?xml version="1.0" encoding="UTF-8"?>
<svg width="256" height="256" viewBox="0 0 256 256" xmlns="http://www.w3.org/2000/svg">
  <defs>
    <!-- Gradient for modern look -->
    <linearGradient id="mainGradient" x1="0%" y1="0%" x2="100%" y2="100%">
      <stop offset="0%" style="stop-color:#4A90E2;stop-opacity:1" />
      <stop offset="100%" style="stop-color:#357ABD;stop-opacity:1" />
    </linearGradient>
    
    <!-- Gradient for photo frames -->
    <linearGradient id="frameGradient" x1="0%" y1="0%" x2="100%" y2="100%">
      <stop offset="0%" style="stop-color:#F8F9FA;stop-opacity:1" />
      <stop offset="100%" style="stop-color:#E9ECEF;stop-opacity:1" />
    </linearGradient>
    
    <!-- Shadow filter -->
    <filter id="shadow" x="-20%" y="-20%" width="140%" height="140%">
      <feDropShadow dx="3" dy="3" stdDeviation="4" flood-color="#000000" flood-opacity="0.3"/>
    </filter>
  </defs>
  
  <!-- Background circle -->
  <circle cx="128" cy="128" r="120" fill="url(#mainGradient)" filter="url(#shadow)"/>
  
  <!-- Back photo frame (tilted left) -->
  <g transform="translate(128,128) rotate(-15) translate(-128,-128)">
    <rect x="60" y="80" width="80" height="60" rx="4" ry="4" fill="url(#frameGradient)" stroke="#CED4DA" stroke-width="2"/>
    <rect x="65" y="85" width="70" height="50" fill="#ADB5BD"/>
    <!-- Mountain scene in back photo -->
    <polygon points="65,125 80,105 95,115 110,100 125,110 135,135" fill="#6C757D"/>
    <circle cx="105" cy="95" r="8" fill="#FFC107"/>
  </g>
  
  <!-- Middle photo frame (slight tilt) -->
  <g transform="translate(128,128) rotate(-5) translate(-128,-128)">
    <rect x="70" y="90" width="80" height="60" rx="4" ry="4" fill="url(#frameGradient)" stroke="#CED4DA" stroke-width="2"/>
    <rect x="75" y="95" width="70" height="50" fill="#ADB5BD"/>
    <!-- Landscape scene in middle photo -->
    <polygon points="75,135 90,115 105,125 120,110 135,120 145,145" fill="#28A745"/>
    <polygon points="75,145 90,135 105,140 120,130 135,135 145,145" fill="#20C997"/>
    <circle cx="115" cy="105" r="6" fill="#FD7E14"/>
  </g>
  
  <!-- Front photo frame (straight) -->
  <rect x="80" y="100" width="80" height="60" rx="4" ry="4" fill="url(#frameGradient)" stroke="#CED4DA" stroke-width="2" filter="url(#shadow)"/>
  <rect x="85" y="105" width="70" height="50" fill="#ADB5BD"/>
  
  <!-- Photo content - a scenic view -->
  <polygon points="85,145 100,125 115,135 130,120 145,130 155,155" fill="#17A2B8"/>
  <polygon points="85,155 100,145 115,150 130,140 145,145 155,155" fill="#20C997"/>
  <circle cx="125" cy="115" r="8" fill="#FFC107"/>
  
  <!-- Small gallery indicator dots -->
  <circle cx="108" cy="180" r="3" fill="#FFFFFF" opacity="0.8"/>
  <circle cx="120" cy="180" r="3" fill="#FFFFFF" opacity="0.6"/>
  <circle cx="132" cy="180" r="3" fill="#FFFFFF" opacity="0.8"/>
  <circle cx="144" cy="180" r="3" fill="#FFFFFF" opacity="0.6"/>
  
  <!-- Subtle shine effect -->
  <ellipse cx="95" cy="75" rx="25" ry="15" fill="#FFFFFF" opacity="0.2" transform="rotate(-20 95 75)"/>
</svg>